<?xml version="1.0" encoding="UTF-8" standalone="no"?><svg xmlns="http://www.w3.org/2000/svg" xmlns:xlink="http://www.w3.org/1999/xlink" enable-background="new 0 0 128 128" fill="#fab919" height="20.2" preserveAspectRatio="xMidYMid meet" version="1" viewBox="4.8 53.9 118.4 20.2" width="118.4" zoomAndPan="magnify">
 <g id="change1_1"><path d="m25.449 61.231-6.645-0.966-2.973-6.022c-0.174-0.351-0.753-0.351-0.924 0l-2.974 6.022-6.644 0.966c-0.194 0.029-0.357 0.165-0.416 0.352-0.061 0.187-0.012 0.391 0.131 0.527l4.807 4.687-1.134 6.62c-0.035 0.194 0.045 0.389 0.204 0.503 0.159 0.116 0.37 0.131 0.544 0.04l5.943-3.125 5.944 3.125c0.074 0.04 0.156 0.059 0.24 0.059 0.106 0 0.212-0.033 0.303-0.099 0.157-0.114 0.236-0.309 0.202-0.503l-1.134-6.62 4.809-4.687c0.143-0.136 0.191-0.341 0.133-0.527-0.061-0.187-0.221-0.323-0.416-0.352z" fill="inherit"/></g>
 <g id="change1_2"><path d="m49.822 61.231-6.643-0.966-2.974-6.022c-0.172-0.351-0.752-0.351-0.923 0l-2.976 6.022-6.643 0.966c-0.193 0.029-0.355 0.165-0.416 0.352-0.062 0.187-0.011 0.391 0.132 0.527l4.808 4.687-1.137 6.62c-0.03 0.194 0.047 0.389 0.203 0.503 0.162 0.116 0.373 0.131 0.544 0.04l5.946-3.125 5.942 3.125c0.074 0.04 0.157 0.059 0.24 0.059 0.108 0 0.214-0.033 0.306-0.099 0.155-0.114 0.236-0.309 0.201-0.503l-1.135-6.62 4.811-4.687c0.139-0.136 0.189-0.341 0.131-0.527-0.06-0.187-0.221-0.323-0.417-0.352z" fill="inherit"/></g>
 <g id="change1_3"><path d="m74.448 61.231-6.643-0.966-2.973-6.022c-0.173-0.351-0.753-0.351-0.924 0l-2.974 6.022-6.644 0.966c-0.194 0.029-0.357 0.165-0.416 0.352-0.062 0.187-0.014 0.391 0.131 0.527l4.808 4.687-1.137 6.62c-0.033 0.194 0.047 0.389 0.206 0.503 0.157 0.116 0.37 0.131 0.543 0.04l5.944-3.125 5.944 3.125c0.073 0.04 0.156 0.059 0.238 0.059 0.107 0 0.214-0.033 0.303-0.099 0.157-0.114 0.239-0.309 0.204-0.503l-1.134-6.62 4.809-4.687c0.141-0.136 0.191-0.341 0.131-0.527-0.059-0.187-0.221-0.323-0.416-0.352z" fill="inherit"/></g>
 <g id="change1_4"><path d="m98.335 61.231-6.645-0.966-2.974-6.022c-0.175-0.351-0.753-0.351-0.923 0l-2.974 6.022-6.645 0.966c-0.196 0.029-0.354 0.165-0.417 0.352-0.061 0.187-0.012 0.391 0.13 0.527l4.81 4.687-1.136 6.62c-0.034 0.194 0.045 0.389 0.204 0.503 0.159 0.116 0.37 0.131 0.544 0.04l5.944-3.125 5.942 3.125c0.076 0.04 0.158 0.059 0.242 0.059 0.105 0 0.211-0.033 0.302-0.099 0.156-0.114 0.236-0.309 0.203-0.503l-1.133-6.62 4.808-4.687c0.139-0.136 0.189-0.341 0.13-0.527-0.059-0.187-0.221-0.323-0.412-0.352z" fill="inherit"/></g>
 <g id="change1_5"><path d="m123.12 61.583c-0.061-0.187-0.225-0.323-0.417-0.352l-6.645-0.966-2.974-6.022c-0.172-0.351-0.75-0.351-0.924 0l-2.971 6.022-6.646 0.966c-0.194 0.029-0.355 0.165-0.416 0.352-0.062 0.187-0.012 0.391 0.131 0.527l4.808 4.687-1.134 6.62c-0.033 0.194 0.044 0.389 0.205 0.503 0.158 0.116 0.369 0.131 0.542 0.04l5.943-3.125 5.945 3.125c0.074 0.04 0.155 0.059 0.239 0.059 0.107 0 0.213-0.033 0.305-0.099 0.155-0.114 0.235-0.309 0.201-0.503l-1.133-6.62 4.808-4.687c0.143-0.136 0.192-0.34 0.133-0.527z" fill="inherit"/></g>
</svg>